<svg id="svg" version="1.1" xmlns="http://www.w3.org/2000/svg" xmlns:xlink="http://www.w3.org/1999/xlink" width="400" height="372.8571428571429" viewBox="0, 0, 400,372.8571428571429"><g id="svgg"><path id="path0" d="M0.000 186.567 L 0.000 373.134 200.000 373.134 L 400.000 373.134 400.000 186.567 L 400.000 0.000 200.000 0.000 L 0.000 0.000 0.000 186.567 M45.211 19.406 C 56.277 20.674,71.626 27.682,88.433 39.140 C 94.120 43.017,106.627 52.484,108.209 54.110 C 108.312 54.215,109.319 55.049,110.448 55.964 C 127.227 69.555,150.194 93.906,165.354 114.179 C 171.169 121.954,183.955 141.315,183.955 142.343 C 183.955 142.405,185.153 144.615,186.618 147.254 C 191.221 155.549,196.235 166.578,198.936 174.347 C 200.007 177.430,200.069 177.435,201.111 174.534 C 220.301 121.093,278.614 55.003,330.458 27.936 C 359.520 12.763,384.291 17.863,389.602 40.112 C 391.192 46.773,390.675 93.981,388.790 114.366 C 388.581 116.623,388.161 121.241,387.858 124.627 C 383.693 171.085,369.102 198.016,342.819 207.760 C 341.741 208.160,339.683 208.919,338.246 209.448 C 327.974 213.225,310.663 215.957,292.808 216.618 C 283.849 216.949,283.549 217.165,290.550 218.243 C 309.923 221.224,327.854 229.779,336.355 240.096 C 337.038 240.926,338.122 242.192,338.763 242.910 C 349.748 255.213,354.255 275.263,348.997 288.433 C 341.025 308.401,324.314 331.517,310.075 342.274 C 293.426 354.850,281.050 358.719,271.269 354.406 C 256.315 347.813,239.550 333.858,225.627 316.418 C 218.184 307.094,211.129 295.152,205.787 282.836 C 203.911 278.510,202.122 273.859,201.088 270.615 C 200.086 267.470,200.074 267.476,198.708 271.642 C 188.839 301.737,166.703 330.992,141.231 347.604 C 125.442 357.901,118.322 358.509,103.172 350.854 C 83.865 341.098,61.756 314.740,51.514 289.268 C 42.091 265.830,58.924 235.372,87.500 224.156 C 96.234 220.728,109.347 217.537,114.703 217.537 C 115.417 217.537,116.088 217.396,116.195 217.223 C 116.302 217.050,113.080 216.797,109.034 216.662 C 40.653 214.374,18.486 192.418,11.968 120.522 C 9.850 97.162,8.817 49.633,10.261 42.003 C 13.057 27.230,22.985 19.748,40.672 19.085 C 41.390 19.058,43.433 19.203,45.211 19.406 " stroke="none" fill="#f3f3f3" fill-rule="evenodd"></path><path id="path1" d="M33.769 20.183 C 22.049 21.837,14.161 28.713,11.121 39.925 C 9.430 46.164,10.559 113.204,12.499 121.771 C 12.599 122.213,12.939 125.261,13.254 128.545 C 13.569 131.828,13.900 134.767,13.990 135.075 C 14.080 135.382,14.419 137.481,14.744 139.739 C 16.508 152.007,21.338 169.587,24.618 175.680 C 29.738 185.188,32.631 189.355,37.494 194.227 C 47.506 204.255,63.464 211.232,82.276 213.804 C 83.918 214.028,86.101 214.370,87.127 214.564 C 89.915 215.089,103.346 216.064,114.739 216.568 C 125.406 217.040,125.474 217.140,115.672 217.944 C 112.901 218.171,110.548 218.410,110.442 218.475 C 110.337 218.539,108.574 218.876,106.524 219.222 C 80.022 223.706,59.949 238.666,52.463 259.515 C 48.432 270.743,48.326 280.650,52.138 289.717 C 63.577 316.919,86.986 343.708,106.530 351.962 C 111.545 354.080,112.697 354.434,117.257 355.259 L 122.013 356.120 124.906 355.282 C 147.918 348.611,182.014 313.089,193.598 283.714 C 193.991 282.718,194.898 280.476,195.614 278.731 C 196.330 276.987,197.546 273.663,198.315 271.345 C 199.084 269.027,199.879 267.186,200.081 267.253 C 200.283 267.321,201.419 270.057,202.605 273.333 C 213.315 302.911,231.487 327.343,255.784 344.833 C 267.622 353.354,275.416 356.507,282.011 355.442 C 305.221 351.694,332.023 325.449,347.205 291.604 C 353.321 277.969,351.317 261.790,341.772 247.733 C 329.879 230.220,309.901 220.158,282.184 217.721 C 278.788 217.423,275.948 217.117,275.874 217.043 C 275.799 216.968,279.140 216.794,283.298 216.656 C 327.154 215.198,348.793 208.820,363.943 192.886 C 377.996 178.106,385.695 153.175,388.246 114.179 C 388.548 109.562,388.971 103.349,389.185 100.373 C 389.705 93.170,390.412 53.194,390.116 47.761 C 389.360 33.911,382.810 24.491,371.828 21.463 C 370.597 21.123,369.002 20.685,368.284 20.488 C 366.066 19.882,356.060 19.637,353.015 20.114 C 343.755 21.567,328.699 28.489,314.925 37.624 C 294.393 51.242,271.102 71.886,253.389 92.167 C 251.867 93.910,249.744 96.343,248.672 97.575 C 247.599 98.806,245.571 101.241,244.165 102.985 C 242.759 104.729,241.524 106.241,241.420 106.343 C 241.316 106.446,239.705 108.545,237.838 111.007 C 224.318 128.849,213.950 145.872,206.768 162.018 C 204.399 167.343,201.302 175.076,200.906 176.652 C 200.364 178.812,199.781 178.224,198.346 174.067 C 193.268 159.361,182.366 139.090,170.233 121.793 C 165.240 114.675,155.739 102.210,154.475 101.119 C 154.356 101.017,153.073 99.506,151.625 97.761 C 132.220 74.392,98.012 44.147,79.291 33.806 C 78.675 33.466,77.584 32.833,76.866 32.398 C 60.184 22.309,46.398 18.401,33.769 20.183 " stroke="none" fill="#040404" fill-rule="evenodd"></path><path id="path2" d="M40.212 19.300 C 40.883 19.383,41.890 19.382,42.451 19.296 C 43.011 19.211,42.463 19.143,41.231 19.145 C 40.000 19.148,39.541 19.217,40.212 19.300 M357.361 19.299 C 358.023 19.382,359.199 19.383,359.973 19.302 C 360.747 19.221,360.205 19.154,358.769 19.152 C 357.332 19.151,356.699 19.217,357.361 19.299 M335.821 25.187 C 335.308 25.480,335.056 25.720,335.261 25.720 C 335.466 25.720,336.054 25.480,336.567 25.187 C 337.080 24.893,337.332 24.653,337.127 24.653 C 336.922 24.653,336.334 24.893,335.821 25.187 M17.144 27.519 L 15.858 28.918 17.257 27.632 C 18.560 26.435,18.828 26.119,18.543 26.119 C 18.481 26.119,17.851 26.749,17.144 27.519 M66.076 26.259 C 66.460 26.602,68.657 27.612,68.657 27.445 C 68.657 27.230,66.588 26.119,66.188 26.119 C 66.041 26.119,65.990 26.182,66.076 26.259 M329.384 28.384 C 328.615 28.790,327.985 29.206,327.985 29.308 C 327.985 29.409,328.657 29.150,329.478 28.731 C 330.299 28.313,330.970 27.889,330.970 27.791 C 330.970 27.547,330.968 27.548,329.384 28.384 M384.139 29.106 C 385.908 31.173,385.932 31.196,385.528 30.410 C 385.316 30.000,384.666 29.245,384.083 28.733 L 383.022 27.801 384.139 29.106 M9.796 45.336 C 9.800 46.157,9.876 46.449,9.965 45.984 C 10.055 45.520,10.051 44.849,9.958 44.492 C 9.864 44.135,9.791 44.515,9.796 45.336 M390.469 60.261 C 390.469 68.470,390.518 71.775,390.578 67.606 C 390.638 63.436,390.638 56.720,390.578 52.680 C 390.518 48.641,390.468 52.052,390.469 60.261 M100.746 48.251 C 100.746 48.343,101.363 48.889,102.116 49.464 C 102.870 50.038,103.368 50.318,103.224 50.085 C 102.929 49.607,100.746 47.992,100.746 48.251 M9.415 50.746 C 9.415 51.465,9.492 51.758,9.586 51.399 C 9.679 51.040,9.679 50.452,9.586 50.093 C 9.492 49.734,9.415 50.028,9.415 50.746 M113.433 58.769 C 114.129 59.487,114.783 60.075,114.885 60.075 C 114.988 60.075,114.502 59.487,113.806 58.769 C 113.110 58.050,112.456 57.463,112.354 57.463 C 112.251 57.463,112.737 58.050,113.433 58.769 M283.022 61.789 L 280.410 64.243 283.116 61.918 C 285.518 59.853,286.056 59.320,285.728 59.332 C 285.676 59.333,284.459 60.439,283.022 61.789 M116.791 61.754 C 117.487 62.472,118.141 63.060,118.243 63.060 C 118.346 63.060,117.860 62.472,117.164 61.754 C 116.468 61.035,115.814 60.448,115.712 60.448 C 115.609 60.448,116.095 61.035,116.791 61.754 M120.522 65.112 C 121.219 65.830,121.872 66.418,121.975 66.418 C 122.077 66.418,121.592 65.830,120.896 65.112 C 120.199 64.394,119.546 63.806,119.443 63.806 C 119.341 63.806,119.826 64.394,120.522 65.112 M277.038 67.257 L 275.187 69.216 277.146 67.365 C 278.966 65.644,279.276 65.299,278.997 65.299 C 278.938 65.299,278.057 66.180,277.038 67.257 M9.859 74.254 C 9.859 78.461,9.913 80.182,9.980 78.078 C 10.046 75.975,10.046 72.533,9.980 70.429 C 9.913 68.326,9.859 70.047,9.859 74.254 M126.493 70.709 C 127.607 71.838,128.603 72.761,128.706 72.761 C 128.808 72.761,127.980 71.838,126.866 70.709 C 125.751 69.580,124.755 68.657,124.652 68.657 C 124.550 68.657,125.378 69.580,126.493 70.709 M267.724 76.119 C 264.651 79.198,262.220 81.716,262.323 81.716 C 262.425 81.716,265.024 79.198,268.097 76.119 C 271.170 73.041,273.601 70.522,273.498 70.522 C 273.396 70.522,270.797 73.041,267.724 76.119 M137.500 81.716 C 139.338 83.563,140.927 85.075,141.029 85.075 C 141.132 85.075,139.712 83.563,137.873 81.716 C 136.035 79.869,134.447 78.358,134.344 78.358 C 134.241 78.358,135.662 79.869,137.500 81.716 M390.076 84.701 C 390.076 87.882,390.133 89.184,390.203 87.593 C 390.273 86.003,390.273 83.400,390.203 81.810 C 390.133 80.219,390.076 81.521,390.076 84.701 M258.955 85.261 C 258.049 86.185,257.391 86.940,257.494 86.940 C 257.596 86.940,258.422 86.185,259.328 85.261 C 260.235 84.338,260.892 83.582,260.790 83.582 C 260.687 83.582,259.862 84.338,258.955 85.261 M10.200 88.433 C 10.200 89.972,10.266 90.602,10.346 89.832 C 10.427 89.063,10.427 87.803,10.346 87.034 C 10.266 86.264,10.200 86.894,10.200 88.433 M142.164 86.684 C 142.164 86.748,142.710 87.294,143.377 87.897 L 144.590 88.993 143.494 87.780 C 142.472 86.649,142.164 86.396,142.164 86.684 M254.831 89.832 L 253.545 91.231 254.944 89.945 C 256.246 88.749,256.515 88.433,256.230 88.433 C 256.168 88.433,255.538 89.063,254.831 89.832 M251.656 93.377 L 250.560 94.590 251.772 93.494 C 252.439 92.891,252.985 92.345,252.985 92.281 C 252.985 91.993,252.677 92.246,251.656 93.377 M389.654 94.776 C 389.654 95.700,389.727 96.077,389.816 95.616 C 389.905 95.154,389.905 94.398,389.816 93.937 C 389.727 93.475,389.654 93.853,389.654 94.776 M148.507 93.773 C 148.507 93.838,149.053 94.383,149.720 94.986 L 150.933 96.082 149.837 94.869 C 148.815 93.739,148.507 93.485,148.507 93.773 M10.560 100.373 C 10.560 101.502,10.630 101.964,10.715 101.399 C 10.801 100.835,10.801 99.911,10.715 99.347 C 10.630 98.783,10.560 99.244,10.560 100.373 M389.286 103.918 C 389.289 104.944,389.361 105.320,389.447 104.752 C 389.533 104.185,389.530 103.346,389.442 102.887 C 389.353 102.428,389.283 102.892,389.286 103.918 M10.933 106.716 C 10.933 107.845,11.003 108.307,11.088 107.743 C 11.174 107.178,11.174 106.255,11.088 105.690 C 11.003 105.126,10.933 105.588,10.933 106.716 M388.908 110.821 C 388.908 111.744,388.980 112.122,389.069 111.660 C 389.158 111.199,389.158 110.443,389.069 109.981 C 388.980 109.520,388.908 109.897,388.908 110.821 M11.306 112.313 C 11.306 113.442,11.376 113.904,11.461 113.340 C 11.547 112.775,11.547 111.852,11.461 111.287 C 11.376 110.723,11.306 111.185,11.306 112.313 M388.534 115.299 C 388.534 116.222,388.607 116.600,388.696 116.138 C 388.785 115.676,388.785 114.921,388.696 114.459 C 388.607 113.997,388.534 114.375,388.534 115.299 M11.654 116.791 C 11.654 117.509,11.731 117.803,11.824 117.444 C 11.918 117.085,11.918 116.497,11.824 116.138 C 11.731 115.779,11.654 116.073,11.654 116.791 M12.773 128.731 C 12.773 129.450,12.850 129.743,12.944 129.384 C 13.038 129.025,13.038 128.438,12.944 128.078 C 12.850 127.719,12.773 128.013,12.773 128.731 M214.366 145.522 C 214.047 146.138,213.871 146.642,213.973 146.642 C 214.076 146.642,214.420 146.138,214.739 145.522 C 215.057 144.907,215.234 144.403,215.131 144.403 C 215.028 144.403,214.684 144.907,214.366 145.522 M188.619 151.493 C 188.938 152.108,189.282 152.612,189.385 152.612 C 189.487 152.612,189.311 152.108,188.993 151.493 C 188.674 150.877,188.330 150.373,188.227 150.373 C 188.124 150.373,188.301 150.877,188.619 151.493 M17.963 158.209 C 17.963 158.517,18.107 159.104,18.284 159.515 C 18.486 159.985,18.604 160.054,18.604 159.701 C 18.604 159.394,18.460 158.806,18.284 158.396 C 18.081 157.925,17.963 157.856,17.963 158.209 M362.864 194.496 L 359.888 197.575 362.966 194.598 C 364.660 192.961,366.045 191.576,366.045 191.520 C 366.045 191.248,365.629 191.637,362.864 194.496 M36.381 194.030 C 37.182 194.851,37.922 195.522,38.025 195.522 C 38.127 195.522,37.555 194.851,36.754 194.030 C 35.952 193.209,35.212 192.537,35.110 192.537 C 35.007 192.537,35.579 193.209,36.381 194.030 M91.329 215.562 C 91.793 215.652,92.465 215.648,92.822 215.555 C 93.178 215.461,92.799 215.388,91.978 215.393 C 91.157 215.397,90.865 215.473,91.329 215.562 M307.374 215.562 C 307.838 215.652,308.510 215.648,308.866 215.555 C 309.223 215.461,308.843 215.388,308.022 215.393 C 307.201 215.397,306.910 215.473,307.374 215.562 M94.875 215.939 C 95.442 216.025,96.281 216.023,96.740 215.934 C 97.199 215.846,96.735 215.776,95.709 215.778 C 94.683 215.781,94.307 215.854,94.875 215.939 M303.825 215.929 C 304.184 216.023,304.771 216.023,305.131 215.929 C 305.490 215.835,305.196 215.758,304.478 215.758 C 303.759 215.758,303.465 215.835,303.825 215.929 M100.284 216.309 C 100.748 216.398,101.420 216.395,101.777 216.301 C 102.133 216.208,101.754 216.135,100.933 216.139 C 100.112 216.143,99.820 216.219,100.284 216.309 M298.787 216.308 C 299.249 216.397,300.005 216.397,300.466 216.308 C 300.928 216.219,300.550 216.146,299.627 216.146 C 298.703 216.146,298.326 216.219,298.787 216.308 M107.374 216.682 C 107.838 216.771,108.510 216.768,108.866 216.674 C 109.223 216.581,108.843 216.508,108.022 216.512 C 107.201 216.516,106.910 216.593,107.374 216.682 M290.951 216.681 C 291.413 216.770,292.169 216.770,292.631 216.681 C 293.092 216.592,292.715 216.520,291.791 216.520 C 290.868 216.520,290.490 216.592,290.951 216.681 M116.210 217.199 C 116.032 217.487,116.703 217.528,118.520 217.339 C 121.853 216.992,122.003 216.791,118.927 216.791 C 117.548 216.791,116.351 216.970,116.210 217.199 M282.032 217.254 C 283.980 217.511,284.891 217.497,285.185 217.204 C 285.486 216.902,284.747 216.805,282.444 216.841 L 279.291 216.891 282.032 217.254 M112.971 217.801 C 113.435 217.890,114.107 217.887,114.463 217.794 C 114.820 217.700,114.440 217.627,113.619 217.631 C 112.799 217.636,112.507 217.712,112.971 217.801 M83.116 225.960 C 81.669 226.745,81.833 227.015,83.302 226.268 C 84.709 225.553,84.958 225.367,84.484 225.388 C 84.296 225.396,83.680 225.654,83.116 225.960 M330.597 234.818 C 330.597 234.882,331.143 235.428,331.810 236.031 L 333.022 237.127 331.926 235.914 C 330.905 234.784,330.597 234.530,330.597 234.818 M65.290 238.713 L 62.127 241.978 65.392 238.814 C 67.188 237.074,68.657 235.605,68.657 235.549 C 68.657 235.278,68.228 235.680,65.290 238.713 M334.701 238.619 C 335.398 239.338,336.051 239.925,336.154 239.925 C 336.256 239.925,335.771 239.338,335.075 238.619 C 334.378 237.901,333.725 237.313,333.622 237.313 C 333.520 237.313,334.005 237.901,334.701 238.619 M54.273 253.766 C 53.945 254.401,53.743 254.986,53.824 255.067 C 53.904 255.148,54.250 254.629,54.591 253.913 C 55.359 252.304,55.093 252.181,54.273 253.766 M48.987 272.948 C 48.990 273.974,49.063 274.349,49.148 273.782 C 49.234 273.215,49.232 272.375,49.143 271.917 C 49.055 271.458,48.985 271.922,48.987 272.948 M351.242 276.679 C 351.243 278.116,351.311 278.658,351.392 277.883 C 351.472 277.109,351.471 275.934,351.389 275.272 C 351.306 274.609,351.240 275.243,351.242 276.679 M48.987 278.918 C 48.990 279.944,49.063 280.320,49.148 279.752 C 49.234 279.185,49.232 278.346,49.143 277.887 C 49.055 277.428,48.985 277.892,48.987 278.918 M338.948 307.929 C 337.664 310.108,337.580 310.294,338.234 309.515 C 338.992 308.612,339.645 307.463,339.401 307.463 C 339.303 307.463,339.099 307.673,338.948 307.929 M221.642 311.194 C 222.080 311.810,222.523 312.313,222.625 312.313 C 222.728 312.313,222.453 311.810,222.015 311.194 C 221.577 310.578,221.134 310.075,221.031 310.075 C 220.929 310.075,221.203 310.578,221.642 311.194 M66.418 316.418 C 66.856 317.034,67.299 317.537,67.402 317.537 C 67.504 317.537,67.229 317.034,66.791 316.418 C 66.353 315.802,65.910 315.299,65.807 315.299 C 65.705 315.299,65.980 315.802,66.418 316.418 M230.970 322.948 C 231.666 323.666,232.320 324.254,232.423 324.254 C 232.525 324.254,232.039 323.666,231.343 322.948 C 230.647 322.229,229.994 321.642,229.891 321.642 C 229.788 321.642,230.274 322.229,230.970 322.948 M236.567 328.918 C 237.682 330.047,238.678 330.970,238.780 330.970 C 238.883 330.970,238.055 330.047,236.940 328.918 C 235.826 327.789,234.830 326.866,234.727 326.866 C 234.624 326.866,235.452 327.789,236.567 328.918 M162.676 329.757 L 160.261 332.276 162.780 329.862 C 165.119 327.619,165.469 327.239,165.194 327.239 C 165.137 327.239,164.004 328.372,162.676 329.757 M78.716 331.437 C 79.631 332.411,80.428 333.209,80.488 333.209 C 80.768 333.209,80.472 332.874,78.825 331.328 L 77.052 329.664 78.716 331.437 M318.463 334.422 L 314.739 338.246 318.563 334.522 C 322.116 331.063,322.558 330.597,322.288 330.597 C 322.233 330.597,320.512 332.318,318.463 334.422 M239.179 331.460 C 239.179 331.524,239.725 332.070,240.392 332.673 L 241.604 333.769 240.509 332.556 C 239.487 331.426,239.179 331.172,239.179 331.460 M312.482 340.019 L 311.007 341.604 312.593 340.129 C 314.068 338.758,314.351 338.433,314.068 338.433 C 314.007 338.433,313.294 339.146,312.482 340.019 M91.925 343.572 C 92.220 344.049,94.403 345.665,94.403 345.406 C 94.403 345.313,93.787 344.768,93.033 344.193 C 92.280 343.618,91.781 343.339,91.925 343.572 M145.336 344.622 L 144.216 345.584 145.429 344.782 C 146.096 344.340,146.642 343.907,146.642 343.818 C 146.642 343.539,146.484 343.636,145.336 344.622 M121.180 356.234 C 121.644 356.323,122.316 356.320,122.672 356.227 C 123.029 356.133,122.649 356.060,121.828 356.064 C 121.007 356.068,120.716 356.145,121.180 356.234 " stroke="none" fill="#848484" fill-rule="evenodd"></path><path id="path3" d="M39.272 19.677 C 40.247 19.754,41.842 19.754,42.817 19.677 C 43.792 19.600,42.994 19.537,41.045 19.537 C 39.095 19.537,38.298 19.600,39.272 19.677 M357.183 19.677 C 358.158 19.754,359.753 19.754,360.728 19.677 C 361.702 19.600,360.905 19.537,358.955 19.537 C 357.006 19.537,356.208 19.600,357.183 19.677 M52.052 21.269 C 52.463 21.445,53.050 21.589,53.358 21.589 C 53.711 21.589,53.642 21.471,53.172 21.269 C 52.761 21.092,52.174 20.948,51.866 20.948 C 51.513 20.948,51.582 21.067,52.052 21.269 M23.787 22.975 C 22.341 23.759,22.504 24.030,23.974 23.283 C 25.380 22.568,25.629 22.382,25.155 22.403 C 24.967 22.411,24.352 22.668,23.787 22.975 M65.299 26.306 C 65.812 26.599,66.399 26.839,66.604 26.839 C 66.810 26.839,66.558 26.599,66.045 26.306 C 65.532 26.013,64.944 25.773,64.739 25.773 C 64.534 25.773,64.785 26.013,65.299 26.306 M17.517 27.519 L 16.231 28.918 17.631 27.632 C 18.933 26.435,19.201 26.119,18.916 26.119 C 18.854 26.119,18.224 26.749,17.517 27.519 M68.657 27.779 C 68.657 27.882,69.160 28.226,69.776 28.545 C 70.392 28.863,70.896 29.040,70.896 28.937 C 70.896 28.834,70.392 28.490,69.776 28.172 C 69.160 27.853,68.657 27.677,68.657 27.779 M327.519 29.691 C 326.124 30.448,326.209 30.763,327.612 30.037 C 328.228 29.719,328.731 29.379,328.731 29.281 C 328.731 29.041,328.691 29.055,327.519 29.691 M308.769 41.637 L 307.649 42.599 308.862 41.796 C 309.529 41.355,310.075 40.921,310.075 40.833 C 310.075 40.553,309.917 40.651,308.769 41.637 M303.344 45.549 L 302.052 46.696 303.451 45.692 C 304.688 44.804,305.090 44.403,304.743 44.403 C 304.684 44.403,304.055 44.919,303.344 45.549 M390.019 46.455 C 390.024 47.276,390.100 47.568,390.189 47.104 C 390.279 46.640,390.275 45.968,390.182 45.611 C 390.088 45.255,390.015 45.634,390.019 46.455 M9.838 52.425 C 9.839 54.478,9.901 55.270,9.977 54.185 C 10.053 53.101,10.052 51.422,9.975 50.454 C 9.899 49.486,9.837 50.373,9.838 52.425 M297.015 50.419 C 295.715 51.559,295.714 51.560,296.910 50.764 C 297.571 50.325,298.211 49.805,298.332 49.609 C 298.692 49.027,298.393 49.211,297.015 50.419 M9.796 58.396 C 9.800 59.216,9.876 59.508,9.965 59.044 C 10.055 58.580,10.051 57.908,9.958 57.552 C 9.864 57.195,9.791 57.575,9.796 58.396 M287.477 58.302 L 286.381 59.515 287.593 58.419 C 288.260 57.816,288.806 57.271,288.806 57.206 C 288.806 56.918,288.498 57.172,287.477 58.302 M112.687 58.326 C 112.687 58.390,113.232 58.936,113.899 59.538 L 115.112 60.634 114.016 59.422 C 112.994 58.291,112.687 58.037,112.687 58.326 M116.604 61.940 C 117.406 62.761,118.146 63.433,118.248 63.433 C 118.351 63.433,117.779 62.761,116.978 61.940 C 116.176 61.119,115.436 60.448,115.334 60.448 C 115.231 60.448,115.803 61.119,116.604 61.940 M281.716 63.246 C 280.810 64.170,280.152 64.925,280.255 64.925 C 280.358 64.925,281.183 64.170,282.090 63.246 C 282.996 62.323,283.654 61.567,283.551 61.567 C 283.448 61.567,282.623 62.323,281.716 63.246 M390.081 69.590 C 390.081 73.489,390.137 75.033,390.204 73.022 C 390.271 71.010,390.271 67.820,390.203 65.932 C 390.136 64.044,390.081 65.690,390.081 69.590 M120.134 65.019 C 121.049 65.993,121.846 66.791,121.906 66.791 C 122.186 66.791,121.890 66.456,120.243 64.910 L 118.470 63.246 120.134 65.019 M277.612 66.978 C 276.706 67.901,276.048 68.657,276.151 68.657 C 276.253 68.657,277.079 67.901,277.985 66.978 C 278.891 66.054,279.549 65.299,279.446 65.299 C 279.344 65.299,278.518 66.054,277.612 66.978 M125.187 69.776 C 126.405 71.007,127.486 72.015,127.589 72.015 C 127.691 72.015,126.778 71.007,125.560 69.776 C 124.341 68.545,123.260 67.537,123.158 67.537 C 123.055 67.537,123.968 68.545,125.187 69.776 M268.097 76.119 C 265.024 79.198,262.593 81.716,262.696 81.716 C 262.799 81.716,265.397 79.198,268.470 76.119 C 271.543 73.041,273.974 70.522,273.871 70.522 C 273.769 70.522,271.170 73.041,268.097 76.119 M137.500 82.090 C 139.132 83.731,140.552 85.075,140.654 85.075 C 140.757 85.075,139.505 83.731,137.873 82.090 C 136.241 80.448,134.822 79.104,134.719 79.104 C 134.616 79.104,135.868 80.448,137.500 82.090 M10.197 82.276 C 10.199 83.713,10.266 84.255,10.347 83.480 C 10.428 82.706,10.426 81.531,10.344 80.869 C 10.262 80.206,10.195 80.840,10.197 82.276 M259.503 85.168 L 257.276 87.500 259.608 85.273 C 260.891 84.048,261.940 82.999,261.940 82.941 C 261.940 82.665,261.572 83.002,259.503 85.168 M143.097 88.060 C 143.899 88.881,144.638 89.552,144.741 89.552 C 144.844 89.552,144.272 88.881,143.470 88.060 C 142.669 87.239,141.929 86.567,141.826 86.567 C 141.724 86.567,142.295 87.239,143.097 88.060 M389.664 89.179 C 389.664 90.308,389.734 90.770,389.819 90.205 C 389.905 89.641,389.905 88.717,389.819 88.153 C 389.734 87.589,389.664 88.050,389.664 89.179 M254.851 90.112 C 253.944 91.035,253.287 91.791,253.389 91.791 C 253.492 91.791,254.318 91.035,255.224 90.112 C 256.130 89.188,256.788 88.433,256.685 88.433 C 256.583 88.433,255.757 89.188,254.851 90.112 M10.584 93.843 C 10.585 95.896,10.648 96.687,10.723 95.603 C 10.799 94.519,10.798 92.840,10.722 91.872 C 10.645 90.904,10.583 91.791,10.584 93.843 M146.269 91.604 C 146.965 92.323,147.618 92.910,147.721 92.910 C 147.824 92.910,147.338 92.323,146.642 91.604 C 145.946 90.886,145.292 90.299,145.189 90.299 C 145.087 90.299,145.572 90.886,146.269 91.604 M249.790 95.989 L 248.694 97.201 249.907 96.106 C 250.574 95.503,251.119 94.957,251.119 94.893 C 251.119 94.605,250.812 94.858,249.790 95.989 M152.239 98.507 C 153.098 99.534,153.885 100.373,153.987 100.373 C 154.090 100.373,153.471 99.534,152.612 98.507 C 151.753 97.481,150.966 96.642,150.863 96.642 C 150.761 96.642,151.380 97.481,152.239 98.507 M389.291 99.254 C 389.291 100.382,389.361 100.844,389.446 100.280 C 389.532 99.715,389.532 98.792,389.446 98.228 C 389.361 97.663,389.291 98.125,389.291 99.254 M10.949 100.933 C 10.950 102.575,11.016 103.200,11.095 102.322 C 11.173 101.445,11.172 100.101,11.092 99.337 C 11.012 98.573,10.947 99.291,10.949 100.933 M388.934 105.037 C 388.935 106.679,389.001 107.304,389.080 106.427 C 389.158 105.549,389.157 104.206,389.077 103.442 C 388.997 102.677,388.933 103.396,388.934 105.037 M11.301 107.649 C 11.304 108.675,11.376 109.051,11.462 108.484 C 11.548 107.916,11.545 107.077,11.457 106.618 C 11.368 106.159,11.298 106.623,11.301 107.649 M388.540 111.007 C 388.542 112.034,388.615 112.409,388.701 111.842 C 388.786 111.275,388.784 110.435,388.695 109.976 C 388.607 109.517,388.537 109.981,388.540 111.007 M11.654 113.806 C 11.654 114.524,11.731 114.818,11.824 114.459 C 11.918 114.100,11.918 113.512,11.824 113.153 C 11.731 112.794,11.654 113.088,11.654 113.806 M168.284 119.030 C 168.722 119.646,169.165 120.149,169.267 120.149 C 169.370 120.149,169.095 119.646,168.657 119.030 C 168.218 118.414,167.776 117.910,167.673 117.910 C 167.570 117.910,167.845 118.414,168.284 119.030 M231.343 119.403 C 230.905 120.019,230.630 120.522,230.733 120.522 C 230.835 120.522,231.278 120.019,231.716 119.403 C 232.155 118.787,232.430 118.284,232.327 118.284 C 232.224 118.284,231.782 118.787,231.343 119.403 M229.478 122.015 C 229.039 122.631,228.764 123.134,228.867 123.134 C 228.970 123.134,229.412 122.631,229.851 122.015 C 230.289 121.399,230.564 120.896,230.461 120.896 C 230.359 120.896,229.916 121.399,229.478 122.015 M12.408 122.948 C 12.412 123.769,12.488 124.061,12.577 123.596 C 12.667 123.132,12.663 122.461,12.570 122.104 C 12.476 121.747,12.403 122.127,12.408 122.948 M387.408 125.187 C 387.412 126.007,387.488 126.299,387.577 125.835 C 387.667 125.371,387.663 124.699,387.570 124.343 C 387.476 123.986,387.403 124.366,387.408 125.187 M12.773 125.746 C 12.773 126.465,12.850 126.758,12.944 126.399 C 13.038 126.040,13.038 125.452,12.944 125.093 C 12.850 124.734,12.773 125.028,12.773 125.746 M387.027 127.985 C 387.027 128.703,387.104 128.997,387.198 128.638 C 387.291 128.279,387.291 127.691,387.198 127.332 C 387.104 126.973,387.027 127.267,387.027 127.985 M187.127 149.254 C 187.445 149.869,187.790 150.373,187.892 150.373 C 187.995 150.373,187.818 149.869,187.500 149.254 C 187.182 148.638,186.837 148.134,186.735 148.134 C 186.632 148.134,186.808 148.638,187.127 149.254 M212.500 149.627 C 212.182 150.243,212.005 150.746,212.108 150.746 C 212.210 150.746,212.555 150.243,212.873 149.627 C 213.192 149.011,213.368 148.507,213.265 148.507 C 213.163 148.507,212.818 149.011,212.500 149.627 M17.601 155.410 C 17.595 155.821,17.734 156.493,17.910 156.903 C 18.319 157.854,18.319 156.873,17.910 155.597 C 17.670 154.847,17.610 154.811,17.601 155.410 M191.817 158.396 C 191.817 158.601,192.057 159.188,192.351 159.701 C 192.644 160.215,192.884 160.466,192.884 160.261 C 192.884 160.056,192.644 159.468,192.351 158.955 C 192.057 158.442,191.817 158.190,191.817 158.396 M207.523 159.531 C 206.898 160.903,207.017 161.196,207.693 159.948 C 208.009 159.366,208.198 158.819,208.112 158.734 C 208.027 158.649,207.762 159.007,207.523 159.531 M193.683 162.500 C 193.683 162.705,193.923 163.293,194.216 163.806 C 194.510 164.319,194.750 164.571,194.750 164.366 C 194.750 164.160,194.510 163.573,194.216 163.060 C 193.923 162.547,193.683 162.295,193.683 162.500 M199.254 176.749 C 199.254 177.423,200.267 178.086,200.564 177.605 C 200.705 177.376,200.720 177.088,200.597 176.965 C 200.474 176.842,200.368 176.979,200.361 177.270 C 200.353 177.642,200.187 177.584,199.802 177.074 C 199.500 176.676,199.254 176.529,199.254 176.749 M26.306 179.478 C 26.624 180.093,26.969 180.597,27.071 180.597 C 27.174 180.597,26.997 180.093,26.679 179.478 C 26.361 178.862,26.016 178.358,25.914 178.358 C 25.811 178.358,25.988 178.862,26.306 179.478 M362.491 194.496 L 359.515 197.575 362.593 194.598 C 364.286 192.961,365.672 191.576,365.672 191.520 C 365.672 191.248,365.256 191.637,362.491 194.496 M37.208 194.411 C 37.869 195.104,38.472 195.595,38.549 195.503 C 38.627 195.411,38.086 194.844,37.349 194.243 L 36.007 193.151 37.208 194.411 M357.449 198.908 L 356.157 200.054 357.556 199.050 C 358.792 198.163,359.195 197.761,358.848 197.761 C 358.789 197.761,358.159 198.277,357.449 198.908 M349.534 203.945 C 348.139 204.702,348.224 205.017,349.627 204.291 C 350.243 203.973,350.746 203.633,350.746 203.535 C 350.746 203.295,350.706 203.309,349.534 203.945 M346.549 205.437 C 345.102 206.222,345.266 206.493,346.735 205.746 C 348.142 205.030,348.391 204.845,347.917 204.866 C 347.729 204.874,347.113 205.131,346.549 205.437 M61.194 208.892 C 61.502 209.082,62.174 209.350,62.687 209.488 C 63.335 209.661,63.449 209.632,63.060 209.391 C 62.752 209.201,62.080 208.933,61.567 208.796 C 60.919 208.623,60.805 208.652,61.194 208.892 M314.272 214.436 C 314.632 214.530,315.219 214.530,315.578 214.436 C 315.938 214.342,315.644 214.266,314.925 214.266 C 314.207 214.266,313.913 214.342,314.272 214.436 M94.687 215.562 C 95.151 215.652,95.823 215.648,96.180 215.555 C 96.536 215.461,96.157 215.388,95.336 215.393 C 94.515 215.397,94.223 215.473,94.687 215.562 M304.198 215.556 C 304.557 215.650,305.145 215.650,305.504 215.556 C 305.863 215.462,305.569 215.385,304.851 215.385 C 304.132 215.385,303.839 215.462,304.198 215.556 M99.347 215.939 C 99.911 216.024,100.835 216.024,101.399 215.939 C 101.964 215.853,101.502 215.783,100.373 215.783 C 99.244 215.783,98.783 215.853,99.347 215.939 M299.167 215.942 C 299.838 216.025,300.845 216.023,301.406 215.938 C 301.967 215.853,301.418 215.785,300.187 215.787 C 298.955 215.789,298.496 215.859,299.167 215.942 M103.830 216.313 C 104.397 216.398,105.236 216.396,105.695 216.307 C 106.154 216.219,105.690 216.149,104.664 216.151 C 103.638 216.154,103.263 216.227,103.830 216.313 M294.316 216.315 C 294.987 216.398,295.994 216.397,296.555 216.311 C 297.116 216.226,296.567 216.158,295.336 216.160 C 294.104 216.162,293.646 216.232,294.316 216.315 M111.839 216.687 C 112.501 216.770,113.676 216.771,114.451 216.690 C 115.225 216.609,114.683 216.542,113.246 216.540 C 111.810 216.539,111.176 216.605,111.839 216.687 M285.919 216.686 C 286.486 216.771,287.326 216.769,287.785 216.681 C 288.244 216.592,287.780 216.522,286.754 216.525 C 285.728 216.527,285.352 216.600,285.919 216.686 M120.709 217.164 L 119.216 217.431 120.896 217.440 C 121.819 217.445,123.078 217.321,123.694 217.164 L 124.813 216.879 123.507 216.888 C 122.789 216.893,121.530 217.017,120.709 217.164 M276.679 217.164 C 277.295 217.321,278.554 217.448,279.478 217.446 L 281.157 217.444 279.478 217.145 C 278.554 216.981,277.295 216.854,276.679 216.863 L 275.560 216.879 276.679 217.164 M116.138 217.795 C 116.497 217.888,117.085 217.888,117.444 217.795 C 117.803 217.701,117.509 217.624,116.791 217.624 C 116.073 217.624,115.779 217.701,116.138 217.795 M282.929 217.795 C 283.288 217.888,283.876 217.888,284.235 217.795 C 284.594 217.701,284.300 217.624,283.582 217.624 C 282.864 217.624,282.570 217.701,282.929 217.795 M83.955 225.933 C 83.442 226.226,83.190 226.466,83.396 226.466 C 83.601 226.466,84.188 226.226,84.701 225.933 C 85.215 225.640,85.466 225.400,85.261 225.400 C 85.056 225.400,84.468 225.640,83.955 225.933 M80.877 227.452 C 79.482 228.209,79.567 228.524,80.970 227.799 C 81.586 227.480,82.090 227.140,82.090 227.043 C 82.090 226.803,82.049 226.816,80.877 227.452 M326.119 231.820 C 326.119 231.891,326.665 232.349,327.332 232.837 C 328.083 233.386,328.343 233.476,328.016 233.073 C 327.519 232.461,326.119 231.536,326.119 231.820 M328.731 233.679 C 328.731 233.767,329.613 234.574,330.690 235.472 C 331.768 236.371,332.414 236.811,332.125 236.449 C 331.547 235.724,328.731 233.426,328.731 233.679 M67.164 237.127 C 66.258 238.050,65.600 238.806,65.703 238.806 C 65.805 238.806,66.631 238.050,67.537 237.127 C 68.444 236.203,69.101 235.448,68.999 235.448 C 68.896 235.448,68.071 236.203,67.164 237.127 M334.328 238.619 C 335.025 239.338,335.678 239.925,335.781 239.925 C 335.883 239.925,335.398 239.338,334.701 238.619 C 334.005 237.901,333.352 237.313,333.249 237.313 C 333.147 237.313,333.632 237.901,334.328 238.619 M63.786 240.578 L 62.500 241.978 63.899 240.692 C 65.202 239.495,65.470 239.179,65.185 239.179 C 65.123 239.179,64.493 239.809,63.786 240.578 M61.142 243.563 C 60.068 244.859,59.614 245.522,59.798 245.522 C 59.901 245.522,60.434 244.935,60.982 244.216 C 61.999 242.883,62.122 242.380,61.142 243.563 M350.883 276.306 C 350.884 278.358,350.946 279.150,351.022 278.066 C 351.097 276.982,351.097 275.302,351.020 274.335 C 350.943 273.367,350.882 274.254,350.883 276.306 M194.090 282.292 C 193.465 283.664,193.585 283.957,194.261 282.710 C 194.576 282.127,194.765 281.581,194.679 281.495 C 194.594 281.410,194.329 281.769,194.090 282.292 M349.295 286.235 C 349.065 286.895,348.943 287.500,349.022 287.580 C 349.102 287.659,349.356 287.185,349.585 286.526 C 349.815 285.866,349.938 285.261,349.858 285.182 C 349.778 285.102,349.525 285.576,349.295 286.235 M339.321 306.810 C 338.037 308.989,337.953 309.175,338.607 308.396 C 339.365 307.493,340.019 306.343,339.774 306.343 C 339.676 306.343,339.473 306.553,339.321 306.810 M219.662 307.865 C 220.032 308.496,220.574 309.210,220.866 309.450 C 221.157 309.691,220.925 309.174,220.350 308.302 C 219.142 306.471,218.666 306.168,219.662 307.865 M333.582 315.672 C 333.144 316.287,332.869 316.791,332.972 316.791 C 333.074 316.791,333.517 316.287,333.955 315.672 C 334.394 315.056,334.668 314.552,334.566 314.552 C 334.463 314.552,334.020 315.056,333.582 315.672 M328.129 323.024 C 327.338 323.989,326.886 324.658,327.124 324.511 C 327.632 324.197,329.995 321.269,329.740 321.269 C 329.645 321.269,328.920 322.058,328.129 323.024 M167.164 324.440 C 166.258 325.364,165.600 326.119,165.703 326.119 C 165.805 326.119,166.631 325.364,167.537 324.440 C 168.444 323.517,169.101 322.761,168.999 322.761 C 168.896 322.761,168.071 323.517,167.164 324.440 M237.873 329.851 C 240.741 332.724,243.171 335.075,243.274 335.075 C 243.376 335.075,241.114 332.724,238.246 329.851 C 235.379 326.978,232.948 324.627,232.846 324.627 C 232.743 324.627,235.005 326.978,237.873 329.851 M162.115 329.944 L 159.888 332.276 162.220 330.049 C 163.503 328.824,164.552 327.775,164.552 327.717 C 164.552 327.441,164.184 327.778,162.115 329.944 M78.918 331.343 C 79.929 332.369,80.839 333.209,80.942 333.209 C 81.045 333.209,80.302 332.369,79.291 331.343 C 78.280 330.317,77.369 329.478,77.267 329.478 C 77.164 329.478,77.907 330.317,78.918 331.343 M318.463 334.049 L 314.739 337.873 318.563 334.149 C 322.116 330.690,322.558 330.224,322.288 330.224 C 322.233 330.224,320.512 331.945,318.463 334.049 M156.139 335.541 L 154.664 337.127 156.250 335.652 C 157.725 334.280,158.007 333.955,157.725 333.955 C 157.664 333.955,156.950 334.669,156.139 335.541 M84.686 337.034 C 85.601 338.008,86.398 338.806,86.458 338.806 C 86.738 338.806,86.442 338.471,84.795 336.925 L 83.022 335.261 84.686 337.034 M244.030 335.565 C 244.030 335.629,244.576 336.174,245.243 336.777 L 246.455 337.873 245.359 336.660 C 244.338 335.530,244.030 335.276,244.030 335.565 M246.642 337.803 C 246.642 337.868,247.188 338.413,247.854 339.016 L 249.067 340.112 247.971 338.899 C 246.950 337.769,246.642 337.515,246.642 337.803 M87.313 339.296 C 87.313 339.360,87.859 339.906,88.526 340.509 L 89.739 341.604 88.643 340.392 C 87.621 339.261,87.313 339.008,87.313 339.296 M249.254 340.049 C 249.254 340.152,249.925 340.768,250.746 341.418 C 251.567 342.068,252.239 342.516,252.239 342.413 C 252.239 342.311,251.567 341.695,250.746 341.045 C 249.925 340.395,249.254 339.947,249.254 340.049 M146.828 343.130 L 145.709 344.092 146.922 343.289 C 147.589 342.848,148.134 342.414,148.134 342.325 C 148.134 342.046,147.976 342.143,146.828 343.130 M265.672 351.287 C 265.672 351.389,266.175 351.734,266.791 352.052 C 267.407 352.371,267.910 352.547,267.910 352.445 C 267.910 352.342,267.407 351.997,266.791 351.679 C 266.175 351.361,265.672 351.184,265.672 351.287 M289.739 353.558 C 288.806 354.007,288.775 354.059,289.552 353.869 C 290.610 353.611,291.798 353.005,291.231 353.013 C 291.026 353.016,290.354 353.261,289.739 353.558 M115.485 355.206 C 116.201 355.531,118.200 355.743,117.879 355.460 C 117.794 355.385,117.052 355.221,116.231 355.096 C 115.191 354.937,114.965 354.971,115.485 355.206 M274.067 355.224 C 274.478 355.400,275.065 355.545,275.373 355.545 C 275.726 355.545,275.657 355.426,275.187 355.224 C 274.776 355.048,274.188 354.903,273.881 354.903 C 273.528 354.903,273.597 355.022,274.067 355.224 " stroke="none" fill="#555555" fill-rule="evenodd"></path><path id="path4" d="M9.788 47.761 C 9.788 48.479,9.865 48.773,9.959 48.414 C 10.053 48.055,10.053 47.467,9.959 47.108 C 9.865 46.749,9.788 47.043,9.788 47.761 M9.838 63.246 C 9.839 65.299,9.901 66.090,9.977 65.006 C 10.053 63.922,10.052 62.243,9.975 61.275 C 9.899 60.307,9.837 61.194,9.838 63.246 M390.019 77.799 C 390.024 78.619,390.100 78.911,390.189 78.447 C 390.279 77.983,390.275 77.311,390.182 76.955 C 390.088 76.598,390.015 76.978,390.019 77.799 M389.639 92.164 C 389.639 92.882,389.716 93.176,389.809 92.817 C 389.903 92.458,389.903 91.870,389.809 91.511 C 389.716 91.152,389.639 91.446,389.639 92.164 M48.975 275.933 C 48.979 276.754,49.055 277.046,49.145 276.581 C 49.234 276.117,49.230 275.446,49.137 275.089 C 49.044 274.732,48.971 275.112,48.975 275.933 M165.462 326.586 L 164.366 327.799 165.578 326.703 C 166.709 325.681,166.963 325.373,166.674 325.373 C 166.610 325.373,166.064 325.919,165.462 326.586 M158.378 333.675 L 156.903 335.261 158.489 333.786 C 159.964 332.414,160.246 332.090,159.964 332.090 C 159.903 332.090,159.189 332.803,158.378 333.675 M82.074 334.795 C 82.989 335.770,83.786 336.567,83.846 336.567 C 84.127 336.567,83.830 336.232,82.183 334.686 L 80.410 333.022 82.074 334.795 " stroke="none" fill="#7c7c7c" fill-rule="evenodd"></path></g></svg>